<?xml version="1.0" encoding="UTF-8" standalone="no"?>
<!-- Created with Inkscape (http://www.inkscape.org/) -->

<svg
   xmlns:dc="http://purl.org/dc/elements/1.1/"
   xmlns:cc="http://creativecommons.org/ns#"
   xmlns:rdf="http://www.w3.org/1999/02/22-rdf-syntax-ns#"
   xmlns:svg="http://www.w3.org/2000/svg"
   xmlns="http://www.w3.org/2000/svg"
   xmlns:sodipodi="http://sodipodi.sourceforge.net/DTD/sodipodi-0.dtd"
   xmlns:inkscape="http://www.inkscape.org/namespaces/inkscape"
   width="210mm"
   height="297mm"
   viewBox="0 0 210 297"
   version="1.1"
   id="svg8"
   inkscape:version="0.92.4 (5da689c313, 2019-01-14)"
   sodipodi:docname="ug-logo.svg">
  <defs
     id="defs2" />
  <sodipodi:namedview
     id="base"
     pagecolor="#ffffff"
     bordercolor="#666666"
     borderopacity="1.0"
     inkscape:pageopacity="0.0"
     inkscape:pageshadow="2"
     inkscape:zoom="1.4"
     inkscape:cx="419.94851"
     inkscape:cy="305.35647"
     inkscape:document-units="mm"
     inkscape:current-layer="layer1"
     showgrid="false"
     inkscape:window-width="2482"
     inkscape:window-height="1411"
     inkscape:window-x="-9"
     inkscape:window-y="-9"
     inkscape:window-maximized="1" />
  <metadata
     id="metadata5">
    <rdf:RDF>
      <cc:Work
         rdf:about="">
        <dc:format>image/svg+xml</dc:format>
        <dc:type
           rdf:resource="http://purl.org/dc/dcmitype/StillImage" />
        <dc:title />
      </cc:Work>
    </rdf:RDF>
  </metadata>
  <g
     inkscape:label="Layer 1"
     inkscape:groupmode="layer"
     id="layer1">
    <path
       style="fill:#000000;stroke-width:0.21166667"
       d="m 82.228323,296.89592 c -5.77805,-0.21908 -10.4203,-0.90588 -16.61583,-2.45825 C 33.281003,286.33665 8.0763531,259.89747 1.4863927,227.17069 0.04413274,220.00815 0.00500274,219.55362 1.9274323e-4,209.90705 -0.00480726,200.89247 0.08149274,199.49328 0.96755274,194.13788 1.9055227,188.46847 4.2304327,180.55848 6.5836527,175.03037 15.475063,154.14296 32.347033,137.32123 53.219213,128.53367 c 7.8831,-3.31892 17.48624,-5.7146 25.16347,-6.27748 4.21835,-0.30928 14.588667,-0.12599 18.450637,0.32611 18.41197,2.1554 34.13397,9.00052 48.15417,20.96558 3.29931,2.81568 4.55055,4.11715 4.55335,4.73611 0.002,0.45314 -1.27312,1.80971 -6.82625,7.26202 -3.75582,3.68763 -7.05057,6.82717 -7.32166,6.97676 -0.63649,0.3512 -0.81709,0.23794 -3.88397,-2.43585 -11.24873,-9.80694 -23.61284,-15.09588 -38.43176,-16.43977 -4.16631,-0.37784 -12.693737,-0.16037 -16.438307,0.41921 -13.36815,2.06911 -25.21058,8.1354 -35.55302,18.21205 -11.26546,10.97595 -17.40245,23.55062 -19.31939,39.5853 -0.49558,4.14549 -0.49309,12.35869 0.005,16.1925 1.96387,15.11844 8.40406,27.72899 19.95498,39.07385 9.8196,9.64444 21.07821,15.2343 35.13665,17.44523 10.89281,1.71308 21.369899,0.98354 31.082797,-2.16436 17.04231,-5.52332 31.91627,-18.59993 39.31463,-34.56387 2.23466,-4.82188 4.37188,-11.08146 3.91829,-11.47603 -0.0291,-0.0253 -3.38667,-0.0968 -7.46125,-0.15875 l -7.40833,-0.11272 v -10.47751 -10.4775 l 19.19251,-0.054 c 17.23912,-0.0485 19.22648,-0.0201 19.52625,0.27971 0.26886,0.26886 0.33359,0.8554 0.33299,3.01736 -0.007,24.71181 -9.43742,47.291 -26.80357,64.17503 -12.47655,12.13017 -28.92903,20.46255 -46.11485,23.35495 -5.59064,0.94091 -12.44821,1.27281 -20.214167,0.97836 z m 1.64428,-36.42434 c -6.42428,-0.61963 -13.34534,-3.19447 -18.57462,-6.91029 -2.48366,-1.76483 -6.50048,-5.70071 -8.25118,-8.0849 -4.14629,-5.64665 -6.62341,-11.9181 -7.40609,-18.75041 -0.13603,-1.18746 -0.2179,-10.8798 -0.21898,-25.92642 -0.001,-21.40827 0.0342,-24.0813 0.32776,-24.50041 l 0.3295,-0.47043 9.88342,0.003 c 5.85609,0.002 10.01279,0.085 10.20091,0.20388 0.27809,0.17572 0.33216,3.21715 0.43559,24.49716 0.12954,26.65229 0.0655,25.36247 1.41893,28.58371 1.84184,4.3837 5.54052,7.78833 10.21048,9.3987 1.90874,0.6582 2.16666,0.69356 5.08,0.69642 3.544377,0.003 4.844397,-0.27183 7.514167,-1.59127 5.121492,-2.53114 8.6599,-7.64217 9.21104,-13.30482 0.10846,-1.1144 0.19966,-12.3302 0.20266,-24.92399 0.005,-20.52925 0.0399,-22.9322 0.33808,-23.23041 0.29292,-0.29292 1.51677,-0.33262 10.25383,-0.33262 h 9.92122 l 0.3295,0.47043 c 0.29356,0.41912 0.3295,3.10802 0.3295,24.64832 0,26.09566 -0.018,26.58693 -1.13855,30.99425 -4.62121,18.17678 -21.81815,30.32185 -40.397167,28.52986 z"
       id="path816"
       inkscape:connector-curvature="0" />
  </g>
</svg>
