<?xml version="1.0" encoding="UTF-8" standalone="no"?>
<!-- Created with Inkscape (http://www.inkscape.org/) -->

<svg
   xmlns:dc="http://purl.org/dc/elements/1.1/"
   xmlns:cc="http://creativecommons.org/ns#"
   xmlns:rdf="http://www.w3.org/1999/02/22-rdf-syntax-ns#"
   xmlns:svg="http://www.w3.org/2000/svg"
   xmlns="http://www.w3.org/2000/svg"
   xmlns:sodipodi="http://sodipodi.sourceforge.net/DTD/sodipodi-0.dtd"
   xmlns:inkscape="http://www.inkscape.org/namespaces/inkscape"
   width="128"
   height="128"
   viewBox="0 0 33.866666 33.866666"
   version="1.1"
   id="svg8"
   inkscape:version="0.92.4 (5da689c313, 2019-01-14)"
   sodipodi:docname="ug-logo.svg">
  <defs
     id="defs2" />
  <sodipodi:namedview
     id="base"
     pagecolor="#ffffff"
     bordercolor="#666666"
     borderopacity="1.0"
     inkscape:pageopacity="0.0"
     inkscape:pageshadow="2"
     inkscape:zoom="7.9195959"
     inkscape:cx="106.97895"
     inkscape:cy="63.435169"
     inkscape:document-units="mm"
     inkscape:current-layer="layer1"
     showgrid="false"
     inkscape:window-width="2482"
     inkscape:window-height="1411"
     inkscape:window-x="-9"
     inkscape:window-y="-9"
     inkscape:window-maximized="1"
     units="px" />
  <metadata
     id="metadata5">
    <rdf:RDF>
      <cc:Work
         rdf:about="">
        <dc:format>image/svg+xml</dc:format>
        <dc:type
           rdf:resource="http://purl.org/dc/dcmitype/StillImage" />
        <dc:title></dc:title>
      </cc:Work>
    </rdf:RDF>
  </metadata>
  <g
     inkscape:label="Layer 1"
     inkscape:groupmode="layer"
     id="layer1"
     transform="translate(0,-263.13333)">
    <path
       style="fill:#000000;stroke-width:0.04070698"
       d="m 15.885689,296.91316 c -1.111212,-0.0421 -2.003995,-0.17419 -3.195495,-0.47276 C 6.4723182,294.88244 1.6250508,289.79777 0.35769334,283.50387 0.080323,282.12639 0.07279763,282.03899 0.07187258,280.18379 c -9.6151e-4,-1.73366 0.01563489,-2.00275 0.1860392,-3.03268 0.18038706,-1.09031 0.62750541,-2.61153 1.08006802,-3.67468 1.7099642,-4.01699 4.9547205,-7.25209 8.9687812,-8.94208 1.51605,-0.63829 3.362892,-1.099 4.83935,-1.20726 0.811257,-0.0595 2.805639,-0.0243 3.548359,0.0628 3.540923,0.41453 6.564522,1.73095 9.260837,4.03204 0.634512,0.54151 0.875146,0.79178 0.875684,0.91082 3.85e-4,0.0872 -0.244842,0.34804 -1.312801,1.39662 -0.722304,0.70918 -1.355939,1.31297 -1.408074,1.34174 -0.122408,0.0675 -0.15714,0.0458 -0.746952,-0.46846 -2.163313,-1.88603 -4.541136,-2.90317 -7.391057,-3.16164 -0.801251,-0.0728 -2.441214,-0.0308 -3.161356,0.0805 -2.570915,0.39795 -4.8484084,1.56459 -6.8374283,3.50251 -2.1665327,2.11083 -3.3467766,4.52915 -3.7154354,7.61289 -0.095308,0.79724 -0.09483,2.37677 9.615e-4,3.11407 0.3776844,2.90753 1.6162385,5.33275 3.8376698,7.51455 1.8884694,1.85478 4.0536844,2.92981 6.7573524,3.355 2.094866,0.32946 4.109783,0.18916 5.977733,-0.41624 3.277516,-1.06223 6.138021,-3.57708 7.560847,-6.64719 0.429762,-0.92733 0.840785,-2.13116 0.753551,-2.20704 -0.0055,-0.005 -0.651311,-0.0186 -1.434919,-0.0303 l -1.424745,-0.0217 v -2.01499 -2.01499 l 3.691036,-0.0106 c 3.315365,-0.009 3.697566,-0.004 3.755218,0.0539 0.0517,0.0517 0.06415,0.16451 0.06404,0.58029 -0.0014,4.75249 -1.814971,9.09482 -5.154765,12.34191 -2.399447,2.33284 -5.563528,3.93529 -8.868643,4.49156 -1.075172,0.18091 -2.393995,0.24475 -3.887518,0.18813 z m 0.316222,-7.00498 c -1.235494,-0.11917 -2.566528,-0.61435 -3.572203,-1.32897 -0.477648,-0.3394 -1.25015,-1.09633 -1.586837,-1.55486 -0.797399,-1.08593 -1.2737908,-2.29204 -1.4243119,-3.60601 -0.026158,-0.22836 -0.041901,-2.09237 -0.042114,-4.98608 -1.926e-4,-4.11715 0.00658,-4.63122 0.063034,-4.71183 l 0.063369,-0.0904 1.9007439,5.7e-4 c 1.126222,3.9e-4 1.925624,0.0163 1.961803,0.0392 0.05349,0.0339 0.06388,0.61869 0.08378,4.7112 0.02491,5.12567 0.01259,4.87762 0.272882,5.49711 0.354218,0.84306 1.065534,1.49783 1.963643,1.80754 0.367083,0.12658 0.416686,0.13337 0.976967,0.13393 0.681643,5.7e-4 0.931657,-0.0523 1.4451,-0.30603 0.984944,-0.48678 1.66544,-1.46972 1.771433,-2.55874 0.02086,-0.21433 0.03839,-2.3713 0.03898,-4.79329 9.59e-4,-3.94811 0.0077,-4.41023 0.06502,-4.46758 0.05634,-0.0565 0.291701,-0.064 1.971981,-0.064 h 1.908014 l 0.06336,0.0904 c 0.05646,0.0805 0.06337,0.59772 0.06337,4.74027 0,5.01861 -0.0034,5.11309 -0.218962,5.9607 -0.888735,3.4957 -4.195987,5.8314 -7.769039,5.48677 z"
       id="path816"
       inkscape:connector-curvature="0" />
  </g>
</svg>
